<svg xmlns="http://www.w3.org/2000/svg" viewBox="0 0 1280.25 320.25"><g id="Layer_2" data-name="Layer 2"><g id="Layer_5" data-name="Layer 5"><polygon points="205.13 222.88 200.63 222.88 196.13 222.88 196.13 218.38 191.63 218.38 187.13 218.38 182.63 218.38 178.13 218.38 178.13 222.88 173.63 222.88 169.13 222.88 169.13 218.38 164.63 218.38 164.63 213.88 160.13 213.88 155.63 213.88 151.13 213.88 146.63 213.88 142.13 213.88 137.63 213.88 133.13 213.88 133.13 218.38 133.13 222.88 128.63 222.88 124.13 222.88 119.63 222.88 115.13 222.88 110.63 222.88 106.13 222.88 106.13 227.38 110.63 227.38 110.63 231.88 115.13 231.88 115.13 236.38 119.63 236.38 124.13 236.38 128.63 236.38 133.13 236.38 133.13 240.88 137.63 240.88 142.13 240.88 146.63 240.88 151.13 240.88 151.13 236.38 155.63 236.38 160.13 236.38 160.13 231.88 164.63 231.88 164.63 236.38 164.63 240.88 164.63 245.38 164.63 249.88 164.63 254.38 164.63 258.88 164.63 263.38 164.63 267.88 164.63 272.38 164.63 276.88 164.63 281.38 164.63 285.88 160.13 285.88 160.13 290.38 155.63 290.38 151.13 290.38 146.63 290.38 142.13 290.38 142.13 294.88 146.63 294.88 151.13 294.88 155.63 294.88 160.13 294.88 164.63 294.88 169.13 294.88 173.63 294.88 178.13 294.88 182.63 294.88 187.13 294.88 191.63 294.88 191.63 290.38 196.13 290.38 200.63 290.38 205.13 290.38 205.13 285.88 200.63 285.88 196.13 285.88 191.63 285.88 187.13 285.88 182.63 285.88 178.13 285.88 178.13 281.38 173.63 281.38 173.63 276.88 173.63 272.38 173.63 267.88 173.63 263.38 173.63 258.88 173.63 254.38 173.63 249.88 173.63 245.38 173.63 240.88 173.63 236.38 173.63 231.88 178.13 231.88 178.13 236.38 182.63 236.38 182.63 240.88 187.13 240.88 191.63 240.88 196.13 240.88 196.13 236.38 200.63 236.38 205.13 236.38 205.13 231.88 209.63 231.88 209.63 227.38 214.13 227.38 214.13 222.88 209.63 222.88 205.13 222.88" fill="#304854"/><polygon points="549.88 182.38 549.88 177.88 545.38 177.88 540.88 177.88 536.38 177.88 531.88 177.88 527.38 177.88 522.88 177.88 522.88 182.38 518.38 182.38 518.38 186.88 513.88 186.88 509.38 186.88 504.88 186.88 504.88 191.38 500.38 191.38 500.38 195.88 495.88 195.88 495.88 200.38 491.38 200.38 491.38 195.88 491.38 191.38 491.38 186.88 486.88 186.88 486.88 182.38 486.88 177.88 482.38 177.88 482.38 173.38 477.88 173.38 473.38 173.38 468.88 173.38 468.88 168.88 464.38 168.88 459.88 168.88 459.88 164.38 455.38 164.38 455.38 159.88 455.38 155.38 450.88 155.38 446.38 155.38 446.38 150.88 441.88 150.88 441.88 146.38 437.38 146.38 432.88 146.38 428.38 146.38 423.88 146.38 419.38 146.38 414.88 146.38 414.88 150.88 419.38 150.88 419.38 155.38 423.88 155.38 423.88 159.88 428.38 159.88 428.38 164.38 428.38 168.88 428.38 173.38 428.38 177.88 428.38 182.38 432.88 182.38 432.88 186.88 437.38 186.88 441.88 186.88 446.38 186.88 446.38 191.38 450.88 191.38 450.88 195.88 455.38 195.88 459.88 195.88 464.38 195.88 468.88 195.88 468.88 200.38 473.38 200.38 477.88 200.38 477.88 204.88 473.38 204.88 468.88 204.88 464.38 204.88 459.88 204.88 455.38 204.88 450.88 204.88 446.38 204.88 446.38 209.38 441.88 209.38 441.88 213.88 437.38 213.88 432.88 213.88 428.38 213.88 423.88 213.88 419.38 213.88 414.88 213.88 410.38 213.88 405.88 213.88 405.88 218.38 410.38 218.38 410.38 222.88 414.88 222.88 414.88 227.38 419.38 227.38 419.38 231.88 423.88 231.88 428.38 231.88 432.88 231.88 437.38 231.88 441.88 231.88 446.38 231.88 450.88 231.88 455.38 231.88 455.38 227.38 459.88 227.38 464.38 227.38 464.38 222.88 468.88 222.88 468.88 218.38 473.38 218.38 473.38 213.88 477.88 213.88 477.88 218.38 477.88 222.88 477.88 227.38 473.38 227.38 473.38 231.88 473.38 236.38 468.88 236.38 468.88 240.88 468.88 245.38 468.88 249.88 468.88 254.38 468.88 258.88 468.88 263.38 473.38 263.38 473.38 267.88 473.38 272.38 477.88 272.38 477.88 276.88 477.88 281.38 482.38 281.38 482.38 285.88 477.88 285.88 477.88 290.38 473.38 290.38 468.88 290.38 464.38 290.38 461.88 290.38 461.88 294.88 464.38 294.88 468.88 294.88 473.38 294.88 477.88 294.88 482.38 294.88 486.88 294.88 491.38 294.88 495.88 294.88 500.38 294.88 504.88 294.88 509.38 294.88 509.38 290.38 513.88 290.38 518.38 290.38 522.88 290.38 525.38 290.38 525.38 285.88 522.88 285.88 518.38 285.88 513.88 285.88 509.38 285.88 509.38 281.38 504.88 281.38 504.88 276.88 504.88 272.38 500.38 272.38 495.88 272.38 495.88 267.88 491.38 267.88 491.38 263.38 491.38 258.88 486.88 258.88 486.88 254.38 482.38 254.38 482.38 249.88 482.38 245.38 482.38 240.88 482.38 236.38 482.38 231.88 486.88 231.88 486.88 227.38 486.88 222.88 491.38 222.88 491.38 218.38 491.38 213.88 495.88 213.88 500.38 213.88 504.88 213.88 509.38 213.88 509.38 209.38 513.88 209.38 518.38 209.38 522.88 209.38 522.88 204.88 527.38 204.88 527.38 200.38 531.88 200.38 531.88 195.88 536.38 195.88 536.38 191.38 536.38 186.88 540.88 186.88 545.38 186.88 549.88 186.88 554.38 186.88 554.38 182.38 549.88 182.38" fill="#304854"/><path d="M741.62,186.88v4.5h4.5v9h4.5v4.5h4.5v4.5h27v-4.5h13.5v13.5h-4.5v13.5h-4.5v36h4.5v9h4.5v4.5h4.5v9h-18v4.5h49.5v-4.5h13.5v-4.5h-18v-4.5h-9v-4.5h-4.5v-9h-4.5v-4.5h-4.5v-22.5h4.5v-4.5h18v4.5h9v4.5h27v-4.5h9v-4.5h4.5v-4.5h4.5v-4.5h-31.5v-4.5h-4.5v-4.5h-18v4.5h-4.5v4.5h-9v4.5h-9v-4.5h4.5v-18h4.5v-9h13.5v4.5h9v4.5h27v-4.5h9v-4.5h4.5v-4.5h4.5v-4.5h4.5v-4.5h-27v-4.5h-4.5v-4.5h-27v4.5h-9v4.5h-4.5v-18h27v-4.5h9v-4.5h9v-9h4.5v-4.5h-18v-4.5h-22.5v4.5h-4.5v9h-4.5v-27h4.5v-4.5h4.5v-4.5h4.5v-4.5h4.5v-27h-4.5V74.38h-9v-4.5h-27v4.5h-9v13.5h-4.5v27h4.5v4.5h4.5v4.5h4.5v4.5h13.5v18h-4.5v-9h-13.5v-4.5h-31.5v4.5h9v9h4.5v4.5h4.5v4.5h4.5v4.5h9v4.5h18v27h-9v-4.5h-4.5v-4.5h-4.5v-4.5h-22.5v-4.5h-9v-4.5h-22.5v4.5h-4.5v4.5h-4.5v4.5h13.5v4.5Zm58.5-63h-4.5v-4.5h-4.5v-4.5h-4.5v-4.5h-4.5v-18h13.5v4.5h9v4.5h4.5v9h4.5V96.88h-4.5v-4.5h-9v-4.5h-13.5v-9h9v-4.5h18v4.5h9v4.5h-9v4.5h9v4.5h4.5v18h-4.5v4.5h-4.5v-4.5h-4.5v13.5h-13.5Z" fill="#304854"/><rect x="809.12" y="87.88" width="4.5" height="4.5" fill="#304854"/><rect x="1171.38" y="97.88" width="4.5" height="4.5" fill="#304854"/><polygon points="1171.38 93.38 1166.88 93.38 1166.88 95.63 1166.88 97.88 1171.38 97.88 1171.38 95.63 1171.38 93.38" fill="#304854"/><polygon points="1072.38 88.38 1067.88 88.38 1067.88 92.88 1067.88 98.38 1072.38 98.38 1072.38 92.88 1072.38 88.38" fill="#304854"/><rect x="1094.88" y="84.38" width="4.5" height="4.5" fill="#304854"/><rect x="1085.88" y="93.38" width="4.5" height="4.5" fill="#304854"/><rect x="1067.88" y="84.38" width="4.5" height="4.5" fill="#304854"/><polygon points="1193.88 75.38 1189.38 75.38 1189.38 79.88 1189.38 84.38 1193.88 84.38 1193.88 79.88 1193.88 75.38" fill="#304854"/><polygon points="1129.38 87.88 1133.88 87.88 1138.38 87.88 1142.88 87.88 1147.38 87.88 1147.38 87.88 1151.88 87.88 1156.38 87.88 1156.38 83.38 1160.88 83.38 1160.88 78.88 1160.88 74.38 1160.88 69.88 1156.38 69.88 1156.38 65.38 1156.38 60.88 1151.88 60.88 1151.88 56.38 1147.38 56.38 1142.88 56.38 1138.38 56.38 1133.88 56.38 1129.38 56.38 1124.88 56.38 1120.38 56.38 1115.88 56.38 1115.88 60.88 1111.38 60.88 1106.88 60.88 1106.88 65.38 1106.88 69.88 1102.38 69.88 1102.38 74.38 1102.38 78.88 1106.88 78.88 1106.88 83.38 1111.38 83.38 1111.38 87.88 1115.88 87.88 1120.38 87.88 1124.88 87.88 1124.88 87.88 1129.38 87.88" fill="#304854"/><polygon points="1171.88 79.88 1176.38 79.88 1180.88 79.88 1185.38 79.88 1189.88 79.88 1189.88 75.38 1185.38 75.38 1185.38 70.88 1180.88 70.88 1180.88 66.38 1176.38 66.38 1176.38 61.88 1171.88 61.88 1167.38 61.88 1167.38 66.38 1171.88 66.38 1171.88 70.88 1176.38 70.88 1176.38 75.38 1171.88 75.38 1171.88 79.88" fill="#304854"/><polygon points="1100.38 62.38 1104.88 62.38 1104.88 57.88 1100.38 57.88 1095.88 57.88 1091.38 57.88 1091.38 62.38 1095.88 62.38 1100.38 62.38" fill="#304854"/><polygon points="1160.88 56.38 1160.88 51.88 1158.63 51.88 1156.38 51.88 1156.38 56.38 1158.63 56.38 1160.88 56.38" fill="#304854"/><rect x="1151.88" y="47.38" width="4.5" height="4.5" fill="#304854"/><polygon points="1169.88 47.38 1172.38 47.38 1172.38 42.88 1169.88 42.88 1169.88 38.38 1165.38 38.38 1160.88 38.38 1160.88 33.88 1156.38 33.88 1151.88 33.88 1151.88 38.38 1156.38 38.38 1156.38 42.88 1160.88 42.88 1165.38 42.88 1165.38 47.38 1169.88 47.38" fill="#304854"/><polygon points="1147.38 42.88 1142.88 42.88 1138.38 42.88 1133.88 42.88 1129.38 42.88 1124.88 42.88 1120.38 42.88 1120.38 47.38 1117.88 47.38 1117.88 51.88 1120.38 51.88 1124.88 51.88 1124.88 47.38 1129.38 47.38 1133.88 47.38 1138.38 47.38 1142.88 47.38 1147.38 47.38 1151.88 47.38 1151.88 42.88 1147.38 42.88" fill="#304854"/><polygon points="1147.38 29.38 1142.88 29.38 1138.38 29.38 1133.88 29.38 1129.38 29.38 1124.88 29.38 1120.38 29.38 1115.88 29.38 1111.38 29.38 1111.38 33.88 1107.88 33.88 1107.88 38.38 1111.38 38.38 1115.88 38.38 1115.88 33.88 1120.38 33.88 1124.88 33.88 1129.38 33.88 1133.88 33.88 1138.38 33.88 1142.88 33.88 1147.38 33.88 1151.88 33.88 1151.88 29.38 1147.38 29.38" fill="#304854"/><polygon points="1111.38 24.88 1115.88 24.88 1115.88 20.38 1120.38 20.38 1124.88 20.38 1129.38 20.38 1133.88 20.38 1138.38 20.38 1142.88 20.38 1147.38 20.38 1147.38 24.88 1151.88 24.88 1156.38 24.88 1160.88 24.88 1160.88 29.38 1165.38 29.38 1169.88 29.38 1169.88 33.88 1174.38 33.88 1174.38 38.38 1178.88 38.38 1183.38 38.38 1183.38 33.88 1178.88 33.88 1178.88 29.38 1174.38 29.38 1174.38 24.88 1169.88 24.88 1165.38 24.88 1165.38 20.38 1160.88 20.38 1156.38 20.38 1151.88 20.38 1151.88 15.88 1147.38 15.88 1142.88 15.88 1138.38 15.88 1133.88 15.88 1129.38 15.88 1124.88 15.88 1120.38 15.88 1115.88 15.88 1111.38 15.88 1111.38 20.38 1106.88 20.38 1102.38 20.38 1102.38 24.88 1106.88 24.88 1111.38 24.88" fill="#304854"/><polygon points="1138.38 177.88 1142.88 177.88 1147.38 177.88 1151.88 177.88 1156.38 177.88 1160.88 177.88 1160.88 173.38 1165.38 173.38 1169.88 173.38 1169.88 168.88 1174.38 168.88 1178.88 168.88 1178.88 164.38 1178.88 159.88 1183.38 159.88 1183.38 155.38 1178.88 155.38 1174.38 155.38 1169.88 155.38 1165.38 155.38 1165.38 150.88 1160.88 150.88 1156.38 150.88 1151.88 150.88 1147.38 150.88 1142.88 150.88 1142.88 155.38 1138.38 155.38 1138.38 159.88 1138.38 164.38 1133.88 164.38 1133.88 177.88 1138.38 177.88" fill="#304854"/><polygon points="1120.38 155.38 1120.38 150.88 1120.38 146.38 1115.88 146.38 1111.38 146.38 1106.88 146.38 1106.88 141.88 1102.38 141.88 1097.88 141.88 1093.38 141.88 1088.88 141.88 1084.38 141.88 1079.88 141.88 1075.38 141.88 1075.38 146.38 1079.88 146.38 1084.38 146.38 1084.38 150.88 1084.38 155.38 1088.88 155.38 1088.88 159.88 1093.38 159.88 1093.38 164.38 1097.88 164.38 1097.88 168.88 1102.38 168.88 1106.88 168.88 1106.88 173.38 1111.38 173.38 1115.88 173.38 1120.38 173.38 1124.88 173.38 1124.88 155.38 1120.38 155.38" fill="#304854"/><polygon points="1139.88 124.88 1144.38 124.88 1148.88 124.88 1153.38 124.88 1157.88 124.88 1162.38 124.88 1166.88 124.88 1166.88 120.38 1171.38 120.38 1175.88 120.38 1175.88 115.88 1180.38 115.88 1184.88 115.88 1189.38 115.88 1189.38 111.38 1193.88 111.38 1193.88 106.88 1198.38 106.88 1198.38 102.38 1198.38 97.88 1198.38 93.38 1198.38 88.88 1198.38 84.38 1193.88 84.38 1193.88 88.88 1193.88 93.38 1193.88 97.88 1193.88 102.38 1189.38 102.38 1189.38 102.38 1184.88 102.38 1180.38 102.38 1180.38 102.38 1175.88 102.38 1171.38 102.38 1171.38 106.88 1171.38 111.38 1166.88 111.38 1166.88 115.88 1162.38 115.88 1157.88 115.88 1153.38 115.88 1148.88 115.88 1144.38 115.88 1144.38 111.38 1139.88 111.38 1139.88 106.88 1139.88 102.38 1135.38 102.38 1135.38 106.88 1130.88 106.88 1130.88 111.38 1126.38 111.38 1121.88 111.38 1117.38 111.38 1112.88 111.38 1112.88 111.38 1108.38 111.38 1103.88 111.38 1099.38 111.38 1099.38 102.38 1094.88 102.38 1094.88 97.88 1094.88 93.38 1094.88 88.88 1090.38 88.88 1090.38 93.38 1090.38 93.38 1085.88 93.38 1081.38 93.38 1070.38 93.38 1070.38 103.38 1081.38 103.38 1081.38 106.88 1085.88 106.88 1090.38 106.88 1090.38 115.88 1094.13 115.88 1094.13 120.38 1103.88 120.38 1103.88 120.38 1112.38 120.38 1112.38 122.38 1112.38 122.38 1117.38 122.38 1121.88 122.38 1121.88 124.88 1126.38 124.88 1135.38 124.88 1139.88 124.88" fill="#304854"/><polygon points="1201.38 186.88 1196.88 186.88 1192.38 186.88 1187.88 186.88 1183.38 186.88 1178.88 186.88 1178.88 182.38 1174.38 182.38 1174.38 177.88 1169.88 177.88 1165.38 177.88 1160.88 177.88 1156.38 177.88 1151.88 177.88 1147.38 177.88 1147.38 182.38 1142.88 182.38 1138.38 182.38 1138.38 186.88 1133.88 186.88 1133.88 182.38 1133.88 177.88 1133.88 173.38 1133.88 168.88 1133.88 155.38 1133.88 150.88 1133.88 146.38 1133.88 141.88 1133.88 137.38 1124.88 137.38 1124.88 141.88 1124.88 146.38 1124.88 164.38 1124.88 168.88 1124.88 173.38 1124.88 177.88 1124.88 182.38 1124.88 186.88 1124.88 191.38 1120.38 191.38 1115.88 191.38 1115.88 186.88 1111.38 186.88 1111.38 182.38 1106.88 182.38 1106.88 177.88 1102.38 177.88 1097.88 177.88 1093.38 177.88 1088.88 177.88 1084.38 177.88 1084.38 173.38 1079.88 173.38 1075.38 173.38 1075.38 168.88 1070.88 168.88 1066.38 168.88 1061.88 168.88 1057.38 168.88 1052.88 168.88 1052.88 173.38 1048.38 173.38 1048.38 177.88 1043.88 177.88 1043.88 182.38 1048.38 182.38 1052.88 182.38 1057.38 182.38 1057.38 186.88 1061.88 186.88 1061.88 191.38 1066.38 191.38 1066.38 195.88 1066.38 200.38 1070.88 200.38 1070.88 204.88 1075.38 204.88 1075.38 209.38 1079.88 209.38 1084.38 209.38 1088.88 209.38 1093.38 209.38 1097.88 209.38 1102.38 209.38 1102.38 204.88 1106.88 204.88 1111.38 204.88 1115.88 204.88 1115.88 209.38 1115.88 213.88 1115.88 218.38 1111.38 218.38 1111.38 222.88 1111.38 227.38 1106.88 227.38 1106.88 222.88 1102.38 222.88 1097.88 222.88 1097.88 218.38 1093.38 218.38 1088.88 218.38 1084.38 218.38 1079.88 218.38 1075.38 218.38 1070.88 218.38 1066.38 218.38 1061.88 218.38 1061.88 222.88 1057.38 222.88 1052.88 222.88 1048.38 222.88 1043.88 222.88 1039.38 222.88 1039.38 227.38 1043.88 227.38 1048.38 227.38 1048.38 231.88 1052.88 231.88 1052.88 236.38 1057.38 236.38 1061.88 236.38 1061.88 240.88 1061.88 245.38 1066.38 245.38 1070.88 245.38 1070.88 249.88 1075.38 249.88 1079.88 249.88 1084.38 249.88 1088.88 249.88 1093.38 249.88 1097.88 249.88 1097.88 245.38 1102.38 245.38 1102.38 240.88 1106.88 240.88 1106.88 245.38 1106.88 249.88 1106.88 254.38 1106.88 258.88 1106.88 263.38 1106.88 267.88 1111.38 267.88 1111.38 272.38 1111.38 276.88 1115.88 276.88 1115.88 281.38 1120.38 281.38 1120.38 285.88 1120.38 290.38 1115.88 290.38 1111.38 290.38 1106.88 290.38 1102.38 290.38 1102.38 294.88 1106.88 294.88 1111.38 294.88 1115.88 294.88 1120.38 294.88 1124.88 294.88 1129.38 294.88 1133.88 294.88 1138.38 294.88 1142.88 294.88 1147.38 294.88 1151.88 294.88 1151.88 290.38 1156.38 290.38 1160.88 290.38 1165.38 290.38 1165.38 285.88 1160.88 285.88 1156.38 285.88 1151.88 285.88 1147.38 285.88 1147.38 281.38 1142.88 281.38 1138.38 281.38 1138.38 276.88 1133.88 276.88 1133.88 272.38 1133.88 267.88 1129.38 267.88 1129.38 263.38 1124.88 263.38 1124.88 258.88 1124.88 254.38 1129.38 254.38 1129.38 258.88 1133.88 258.88 1138.38 258.88 1138.38 263.38 1142.88 263.38 1147.38 263.38 1151.88 263.38 1156.38 263.38 1160.88 263.38 1165.38 263.38 1169.88 263.38 1169.88 258.88 1165.38 258.88 1165.38 254.38 1160.88 254.38 1160.88 249.88 1156.38 249.88 1156.38 245.38 1160.88 245.38 1165.38 245.38 1169.88 245.38 1174.38 245.38 1178.88 245.38 1183.38 245.38 1183.38 240.88 1187.88 240.88 1192.38 240.88 1192.38 236.38 1196.88 236.38 1196.88 231.88 1201.38 231.88 1201.38 227.38 1196.88 227.38 1192.38 227.38 1187.88 227.38 1183.38 227.38 1178.88 227.38 1174.38 227.38 1169.88 227.38 1169.88 222.88 1165.38 222.88 1165.38 218.38 1160.88 218.38 1156.38 218.38 1151.88 218.38 1147.38 218.38 1147.38 222.88 1142.88 222.88 1142.88 227.38 1138.38 227.38 1133.88 227.38 1129.38 227.38 1129.38 222.88 1129.38 218.38 1129.38 213.88 1129.38 209.38 1133.88 209.38 1133.88 204.88 1133.88 200.38 1138.38 200.38 1142.88 200.38 1147.38 200.38 1147.38 204.88 1151.88 204.88 1156.38 204.88 1156.38 209.38 1160.88 209.38 1165.38 209.38 1169.88 209.38 1174.38 209.38 1178.88 209.38 1183.38 209.38 1183.38 204.88 1187.88 204.88 1192.38 204.88 1192.38 200.38 1196.88 200.38 1196.88 195.88 1201.38 195.88 1201.38 191.38 1205.88 191.38 1205.88 186.88 1201.38 186.88" fill="#304854"/><polygon points="1091.38 66.88 1091.38 62.38 1086.88 62.38 1086.88 66.88 1082.38 66.88 1082.38 71.38 1077.88 71.38 1073.38 71.38 1068.88 71.38 1068.88 75.88 1064.38 75.88 1064.38 80.38 1064.38 84.88 1064.38 88.88 1068.88 88.9 1068.88 84.88 1068.88 80.38 1073.38 80.38 1073.38 75.88 1077.88 75.88 1082.38 75.88 1086.88 75.88 1086.88 71.38 1091.38 71.38 1095.88 71.38 1095.88 66.88 1091.38 66.88" fill="#304854"/><rect x="1121.88" y="124.38" width="12" height="13" fill="#304854"/><rect x="0.13" y="0.13" width="1280" height="320" fill="none" stroke="#304854" stroke-miterlimit="10" stroke-width="0.25"/></g></g></svg>