<svg xmlns="http://www.w3.org/2000/svg" xmlns:xlink="http://www.w3.org/1999/xlink" viewBox="0 0 194 194"><defs><linearGradient id="linear-gradient" x1="23.19" y1="64.77" x2="185.4" y2="135.6" gradientUnits="userSpaceOnUse"><stop offset="0" stop-color="#426463"/><stop offset="0.01" stop-color="#416262"/><stop offset="0.13" stop-color="#37535a"/><stop offset="0.27" stop-color="#324b55"/><stop offset="0.48" stop-color="#304854"/><stop offset="0.68" stop-color="#334c56"/><stop offset="0.87" stop-color="#3a585d"/><stop offset="1" stop-color="#426463"/></linearGradient><linearGradient id="linear-gradient-2" x1="113.4" y1="70.63" x2="60.17" y2="148.72" gradientUnits="userSpaceOnUse"><stop offset="0" stop-color="#f4e3c3" stop-opacity="0"/><stop offset="1" stop-color="#f4e3c3"/></linearGradient></defs><g style="isolation:isolate"><g id="Layer_2" data-name="Layer 2"><g id="Layer_2-2" data-name="Layer 2"><path d="M178,129.11l.06-.18c0-.06,0-.12,0-.18l.06-.17.06-.18.06-.18.06-.17.06-.18.06-.17.06-.18.06-.18a.84.84,0,0,1,0-.17l.06-.18.06-.18.06-.17.06-.18.06-.18.06-.17.06-.18c0-.06,0-.12,0-.18l.06-.17.06-.18.06-.18.06-.17.06-.18.06-.17.06-.18.06-.18a.84.84,0,0,1,0-.17l.06-.18.06-.18.06-.17.06-.18.06-.18.06-.17.06-.18c0-.06,0-.12,0-.18l.06-.17.06-.18.06-.18.06-.17.06-.18.06-.17.06-.18.06-.18a.84.84,0,0,1,0-.17l.06-.18.06-.18.06-.17.06-.18A87,87,0,1,0,16,64.72l-.06.17-.06.18c0,.06,0,.12-.05.18l-.06.17-.06.18-.06.18-.06.17-.06.18-.06.17-.06.18-.06.18a.84.84,0,0,1-.05.17l-.06.18-.06.18-.06.17-.06.18-.06.18-.06.17-.06.18c0,.06,0,.12-.05.18l-.06.17-.06.18-.06.18-.06.17-.06.18-.06.17-.06.18-.06.18a.84.84,0,0,1-.05.17l-.06.18-.06.18-.06.17-.06.18-.06.18-.06.17-.06.18c0,.06,0,.12-.05.18l-.06.17-.06.18-.06.18-.06.17-.06.18-.06.17-.06.18-.06.18a.84.84,0,0,1-.05.17l-.06.18-.06.18-.06.17-.06.18A87,87,0,1,0,178,129.28Z" fill="url(#linear-gradient)"/><circle cx="98.5" cy="92.5" r="87" fill="#c1f599"/><path d="M98.5,9.5a83,83,0,1,1-83,83,83.09,83.09,0,0,1,83-83m0-4a87,87,0,1,0,87,87,87,87,0,0,0-87-87Z" fill="#426463"/><path d="M88.78,52,95.5,80.07l56.23-13.46,13.47,56.27L109,136.34l-6.72-28.09-.7.12L46,121.68,32.55,65.44Z" fill="#304854"/><g opacity="0.69" style="mix-blend-mode:screen"><path d="M113.64,135.92c-35,0-63.34-26.73-63.34-59.71,0-25.54,17-47.33,41-55.86a72.52,72.52,0,1,0,79.11,82.45C160,122.43,138.49,135.92,113.64,135.92Z" fill="url(#linear-gradient-2)"/></g><circle cx="68.5" cy="139.5" r="17" fill="#f4e3c3" opacity="0.54" style="mix-blend-mode:screen"/><rect width="194" height="194" fill="none"/></g></g></g></svg>