<svg xmlns="http://www.w3.org/2000/svg" xmlns:xlink="http://www.w3.org/1999/xlink" viewBox="0 0 194 194"><defs><linearGradient id="linear-gradient" x1="26.82" y1="69.01" x2="184.97" y2="141.67" gradientUnits="userSpaceOnUse"><stop offset="0" stop-color="#426463"/><stop offset="0.01" stop-color="#416262"/><stop offset="0.13" stop-color="#37535a"/><stop offset="0.27" stop-color="#324b55"/><stop offset="0.48" stop-color="#304854"/><stop offset="0.68" stop-color="#334c56"/><stop offset="0.87" stop-color="#3a585d"/><stop offset="1" stop-color="#426463"/></linearGradient><linearGradient id="linear-gradient-2" x1="111.9" y1="78.63" x2="58.67" y2="156.72" gradientUnits="userSpaceOnUse"><stop offset="0" stop-color="#f4e3c3" stop-opacity="0"/><stop offset="1" stop-color="#f4e3c3"/></linearGradient></defs><g style="isolation:isolate"><g id="Layer_2" data-name="Layer 2"><g id="Layer_2-2" data-name="Layer 2"><path d="M184,98.77c0-.34,0-.68,0-1a80.58,80.58,0,0,0-23.87-57.11A87,87,0,0,0,12.25,120.23C19.11,159,54,188.5,96,188.5a86.11,86.11,0,0,0,62.69-26.69A86.7,86.7,0,0,0,184,100.5C184,99.92,184,99.35,184,98.77Z" fill="url(#linear-gradient)"/><path d="M97,13.5a86.76,86.76,0,0,1,63.13,27.14A80.58,80.58,0,0,1,184,97.75c0,.34,0,.68,0,1,0,.58,0,1.15,0,1.73a86.7,86.7,0,0,1-25.28,61.31A86.11,86.11,0,0,1,96,188.5c-42,0-76.92-29.51-83.78-68.27A87.06,87.06,0,0,1,97,13.5m0-1A88.06,88.06,0,0,0,11.27,120.43a82.76,82.76,0,0,0,29,49.24,88.08,88.08,0,0,0,119.14-7.17,87.45,87.45,0,0,0,25.55-62c0-.58,0-1.17,0-1.75,0-.11,0-.25,0-.39s0-.41,0-.61a81.4,81.4,0,0,0-24.16-57.81A87.17,87.17,0,0,0,97,12.5Z" fill="#c1f599"/><circle cx="97" cy="100.5" r="85" fill="#c1f599"/><path d="M97,17.5a83,83,0,1,1-83,83,83.09,83.09,0,0,1,83-83m0-4a87,87,0,1,0,87,87,87,87,0,0,0-87-87Z" fill="#426463"/><path d="M87.28,60,94,88.07l56.23-13.46,13.47,56.27-56.23,13.46-6.72-28.09-.7.12L44.52,129.68,31.05,73.44Z" fill="#304854"/><g opacity="0.69" style="mix-blend-mode:screen"><path d="M112.14,143.92c-35,0-63.34-26.73-63.34-59.71,0-25.54,17-47.33,41-55.86a72.52,72.52,0,1,0,79.11,82.45C158.48,130.43,137,143.92,112.14,143.92Z" fill="url(#linear-gradient-2)"/></g><circle cx="67" cy="147.5" r="17" fill="#f4e3c3" opacity="0.54" style="mix-blend-mode:screen"/><ellipse cx="96" cy="157.62" rx="8.27" ry="7.12" fill="#f4e3c3" opacity="0.54" style="mix-blend-mode:screen"/><rect width="194" height="194" fill="none"/></g></g></g></svg>